<?xml version="1.0" encoding="UTF-8" standalone="no"?>
<!-- Created with Inkscape (http://www.inkscape.org/) -->

<svg
   xmlns:dc="http://purl.org/dc/elements/1.1/"
   xmlns:cc="http://creativecommons.org/ns#"
   xmlns:rdf="http://www.w3.org/1999/02/22-rdf-syntax-ns#"
   xmlns:svg="http://www.w3.org/2000/svg"
   xmlns="http://www.w3.org/2000/svg"
   xmlns:sodipodi="http://sodipodi.sourceforge.net/DTD/sodipodi-0.dtd"
   xmlns:inkscape="http://www.inkscape.org/namespaces/inkscape"
   id="svg4162"
   version="1.1"
   inkscape:version="0.91 r13725"
   width="131.50375"
   height="50.26112"
   viewBox="0 0 131.50375 50.26112"
   sodipodi:docname="bing.svg">
  <metadata
     id="metadata4168">
    <rdf:RDF>
      <cc:Work
         rdf:about="">
        <dc:format>image/svg+xml</dc:format>
        <dc:type
           rdf:resource="http://purl.org/dc/dcmitype/StillImage" />
        <dc:title />
      </cc:Work>
    </rdf:RDF>
  </metadata>
  <defs
     id="defs4166" />
  <sodipodi:namedview
     pagecolor="#ffffff"
     bordercolor="#666666"
     borderopacity="1"
     objecttolerance="10"
     gridtolerance="10"
     guidetolerance="10"
     inkscape:pageopacity="0"
     inkscape:pageshadow="2"
     inkscape:window-width="1280"
     inkscape:window-height="741"
     id="namedview4164"
     showgrid="false"
     fit-margin-top="0"
     fit-margin-left="0"
     fit-margin-right="0"
     fit-margin-bottom="0"
     inkscape:zoom="2.1900516"
     inkscape:cx="-72.144417"
     inkscape:cy="36.982612"
     inkscape:window-x="0"
     inkscape:window-y="0"
     inkscape:window-maximized="1"
     inkscape:current-layer="g4712" />
  <g
     id="g4712"
     transform="translate(40.181703,-22.373902)">
    <path
       style="fill:#1a1a1a"
       d="m 76.660397,72.298516 c -2.45962,-0.632321 -3.60896,-1.043542 -3.6057,-1.290079 0.002,-0.138092 0.182,-0.823267 0.40038,-1.522613 l 0.39706,-1.271533 0.83031,0.425978 c 2.89296,1.484174 7.78303,1.4106 10.15637,-0.152811 1.10752,-0.729564 2.116495,-2.145027 2.548535,-3.575282 0.37002,-1.224959 0.72911,-5.771357 0.45583,-5.771357 -0.0899,0 -0.65921,0.542519 -1.26523,1.205598 -3.488565,3.81704 -10.274415,3.390774 -13.167265,-0.827127 -1.45758,-2.125213 -1.79981,-3.452389 -1.81345,-7.032607 -0.0102,-2.669427 0.0665,-3.407806 0.496,-4.773543 0.64147,-2.040009 2.09571,-4.218142 3.55212,-5.320275 2.07053,-1.566874 5.56584,-2.190008 8.06513,-1.437831 1.2481,0.375623 2.824245,1.473403 3.438635,2.395003 0.24812,0.372187 0.52725,0.676995 0.6203,0.677351 0.093,3.57e-4 0.16917,-0.659125 0.16917,-1.465516 l 0,-1.466166 1.69173,0 1.69173,0 -0.003,10.770677 c -0.003,10.022269 -0.0349,10.895287 -0.45529,12.563995 -1.19525,4.744042 -3.14898,6.767251 -7.518805,7.786159 -2.25994,0.526949 -4.8306,0.558476 -6.6841,0.08198 z m 6.52826,-12.385231 c 1.5265,-0.453325 3.170725,-1.959339 4.014105,-3.676705 0.59669,-1.215025 0.62305,-1.412531 0.62305,-4.66895 0,-3.113869 -0.045,-3.493834 -0.5344,-4.511278 -1.113095,-2.314112 -3.951505,-3.934142 -6.310715,-3.601855 -4.06944,0.573169 -6.43502,4.309523 -6.06349,9.577104 0.2142,3.037071 1.46824,5.388286 3.40034,6.375349 1.85357,0.946942 2.98973,1.065043 4.87111,0.506335 z m -117.674872,8.542019 -5.695488,-3.989373 0,-21.046014 c 0,-11.575308 0.08459,-21.046015 0.18797,-21.046015 0.103384,0 0.255409,0.06744 0.337836,0.149866 0.08243,0.08243 2.560809,0.875898 5.507518,1.763271 l 5.357653,1.613406 0.04197,14.195375 0.04197,14.195375 -5.140156,4.59011 c -2.827086,2.524563 -5.279122,4.675999 -5.448969,4.780969 -0.169847,0.104971 -0.240659,0.259011 -0.15736,0.342311 0.0833,0.0833 2.364195,-1.012315 5.068656,-2.434696 2.70446,-1.422383 8.748968,-4.602345 13.432239,-7.066579 4.68327,-2.464236 8.515037,-4.539764 8.515037,-4.612283 0,-0.07252 -1.689709,-0.888467 -3.754906,-1.813213 -3.472063,-1.554706 -3.779661,-1.740824 -4.083546,-2.47083 -0.180752,-0.43421 -0.575341,-1.314121 -0.876865,-1.955358 -2.066633,-4.395011 -3.631993,-7.867638 -3.574514,-7.929778 0.07038,-0.07609 4.415968,1.220943 17.3086275,5.166107 l 7.61278083,2.329517 0,6.133993 0,6.133991 -4.34210483,2.546633 c -2.388158,1.400645 -8.5545115,5.049548 -13.7030065,8.108668 -8.517762,5.061063 -10.675425,6.31255 -10.872257,6.306126 -0.03718,-0.0012 -2.630562,-1.797424 -5.763081,-3.991579 z M 23.540097,62.83803 c -1.710158,-0.430236 -3.318106,-1.438444 -3.965982,-2.486727 -0.258119,-0.417648 -0.562534,-0.759357 -0.676475,-0.759357 -0.113941,0 -0.207167,0.659775 -0.207167,1.466166 l 0,1.466165 -1.635338,3e-5 -1.635338,2.9e-5 0.05942,-15.812474 c 0.04677,-12.444905 0.118823,-15.79008 0.338346,-15.70733 0.153408,0.05783 0.861043,0.273563 1.572519,0.479411 l 1.293595,0.37427 0.05979,6.520326 0.05979,6.520326 1.02116,-1.281279 c 0.757421,-0.950356 1.421508,-1.48518 2.571243,-2.070752 1.483213,-0.755416 1.65344,-0.789474 3.945988,-0.789474 2.253511,0 2.485551,0.04413 3.904251,0.742556 3.249374,1.599662 4.79439,4.789733 4.774888,9.858948 -0.02075,5.392946 -2.264799,9.569598 -5.878766,10.94162 -1.288272,0.489086 -4.550327,0.802105 -5.601922,0.537546 z m 4.066784,-3.198932 c 2.726607,-1.412323 4.344602,-4.901386 4.101327,-8.844144 -0.122452,-1.984527 -0.1992,-2.331318 -0.834041,-3.768602 -0.576068,-1.304226 -1.604474,-2.420008 -2.822792,-3.062624 -1.312556,-0.692324 -3.897947,-0.677212 -5.352164,0.03128 -1.5259,0.74342 -2.973754,2.446412 -3.533208,4.155823 -0.592512,1.81041 -0.643814,6.010329 -0.09416,7.707952 0.569278,1.758217 2.465686,3.593046 4.354008,4.212625 0.933911,0.306426 3.208978,0.07119 4.181025,-0.432314 z m 12.061034,-7.829106 0,-10.714286 1.687419,0 1.687416,0 0.0607,10.714344 0.0607,10.714345 -1.74812,-5.9e-5 -1.748121,-5.9e-5 0,-10.714285 z m 9.24812,0 0,-10.714286 1.691729,0 1.691729,0 0,1.691729 c 0,0.930452 0.07613,1.687878 0.169173,1.683169 0.09305,-0.0047 0.439613,-0.399864 0.77015,-0.878123 1.937833,-2.803888 6.532506,-3.814409 9.790941,-2.153355 0.97704,0.498061 1.53437,0.975119 2.06839,1.770463 1.42705,2.125404 1.49048,2.580531 1.58385,11.363561 l 0.0845,7.951127 -1.69339,0 -1.6934,0 -0.0846,-7.5 c -0.0598,-5.302265 -0.16988,-7.76439 -0.37571,-8.402255 -0.4244,-1.315126 -1.95606,-2.698254 -3.361352,-3.035379 -2.957168,-0.709413 -6.156981,1.334648 -7.034619,4.493758 -0.122345,0.440395 -0.222049,3.851461 -0.222744,7.620568 l -0.0013,6.823308 -1.691729,0 -1.691729,0 0,-10.714285 z M 40.079572,35.673573 c -0.497163,-0.290079 -0.936293,-1.654135 -0.740402,-2.299889 0.311526,-1.026942 1.009272,-1.526098 2.133257,-1.526098 1.364273,0 2.132605,0.731391 2.132605,2.030075 0,1.295749 -0.770012,2.032158 -2.115533,2.023216 -0.56766,-0.0038 -1.202129,-0.106059 -1.409927,-0.227304 z"
       id="path4714"
       inkscape:connector-curvature="0" />
  </g>
</svg>
